G04 PROTEUS GERBER X2 FILE*
%TF.GenerationSoftware,Labcenter,Proteus,8.17-SP2-Build37159*%
%TF.CreationDate,2024-06-20T16:09:20+00:00*%
%TF.FileFunction,AssemblyDrawing,Top*%
%TF.FilePolarity,Positive*%
%TF.Part,Single*%
%TF.SameCoordinates,{d690fe0b-f5ba-4302-a425-257792fcdbd5}*%
%FSLAX45Y45*%
%MOMM*%
G01*
%TA.AperFunction,Profile*%
%ADD16C,0.101600*%
%TA.AperFunction,Material*%
%ADD19C,0.101600*%
%ADD26C,0.609600*%
%ADD27C,0.139700*%
%ADD28C,0.914400*%
%ADD29C,0.183130*%
%ADD72C,0.711200*%
%ADD73C,0.113450*%
%ADD30C,0.117340*%
%ADD31C,0.128010*%
%ADD32C,0.812800*%
%ADD33C,0.171190*%
%ADD34C,1.219200*%
%ADD35C,0.195070*%
%ADD71C,0.152400*%
%ADD36C,0.558800*%
%ADD37C,0.114270*%
%TD.AperFunction*%
D16*
X-6550000Y-1560000D02*
X+6840000Y-1560000D01*
X+6840000Y+3120000D01*
X-6550000Y+3120000D01*
X-6550000Y-1560000D01*
D19*
X-2672580Y+1962020D02*
X-2179820Y+1962020D01*
X-2179820Y+2657980D01*
X-2672580Y+2657980D01*
X-2672580Y+1962020D01*
D26*
X-2350000Y+2106800D02*
X-2350000Y+2106800D01*
D27*
X-2468110Y+2271900D02*
X-2398260Y+2271900D01*
X-2384290Y+2287616D01*
X-2384290Y+2350481D01*
X-2398260Y+2366197D01*
X-2468110Y+2366197D01*
X-2440170Y+2429062D02*
X-2468110Y+2460495D01*
X-2384290Y+2460495D01*
D19*
X-4980300Y+2370300D02*
X-3735700Y+2370300D01*
X-3735700Y+2647160D01*
X-4980300Y+2647160D01*
X-4980300Y+2370300D01*
D28*
X-3850000Y+2510000D02*
X-3850000Y+2510000D01*
D29*
X-4602830Y+2453789D02*
X-4602830Y+2563670D01*
X-4520420Y+2563670D01*
X-4479215Y+2527043D01*
X-4479215Y+2490416D01*
X-4520420Y+2453789D01*
X-4602830Y+2453789D01*
X-4396805Y+2527043D02*
X-4355600Y+2563670D01*
X-4355600Y+2453789D01*
D19*
X-5002080Y-867080D02*
X-4737920Y-867080D01*
X-4737920Y-348920D01*
X-5002080Y-348920D01*
X-5002080Y-867080D01*
D72*
X-4870000Y-481000D02*
X-4870000Y-481000D01*
D73*
X-4847309Y-717347D02*
X-4835964Y-730111D01*
X-4835964Y-768401D01*
X-4858655Y-793927D01*
X-4881345Y-793927D01*
X-4904036Y-768401D01*
X-4904036Y-730111D01*
X-4892691Y-717347D01*
X-4881345Y-666294D02*
X-4904036Y-640767D01*
X-4835964Y-640767D01*
D19*
X-2192080Y-832080D02*
X-1673920Y-832080D01*
X-1673920Y-567920D01*
X-2192080Y-567920D01*
X-2192080Y-832080D01*
D72*
X-2060000Y-700000D02*
X-2060000Y-700000D01*
D73*
X-1874707Y-722691D02*
X-1887471Y-734036D01*
X-1925761Y-734036D01*
X-1951287Y-711345D01*
X-1951287Y-688655D01*
X-1925761Y-665964D01*
X-1887471Y-665964D01*
X-1874707Y-677309D01*
X-1836417Y-677309D02*
X-1823654Y-665964D01*
X-1785364Y-665964D01*
X-1772600Y-677309D01*
X-1772600Y-688655D01*
X-1785364Y-700000D01*
X-1823654Y-700000D01*
X-1836417Y-711345D01*
X-1836417Y-734036D01*
X-1772600Y-734036D01*
D19*
X-743900Y+1165100D02*
X-566100Y+1165100D01*
X-566100Y+2358900D01*
X-743900Y+2358900D01*
X-743900Y+1165100D01*
D72*
X-655000Y+2270000D02*
X-655000Y+2270000D01*
D30*
X-619796Y+1594158D02*
X-690204Y+1594158D01*
X-690204Y+1660165D01*
X-678469Y+1673367D01*
X-666735Y+1673367D01*
X-655000Y+1660165D01*
X-655000Y+1594158D01*
X-655000Y+1660165D02*
X-643265Y+1673367D01*
X-619796Y+1673367D01*
X-666735Y+1726173D02*
X-690204Y+1752576D01*
X-619796Y+1752576D01*
D19*
X-753900Y-1204900D02*
X-576100Y-1204900D01*
X-576100Y-11100D01*
X-753900Y-11100D01*
X-753900Y-1204900D01*
D72*
X-665000Y-100000D02*
X-665000Y-100000D01*
D30*
X-629796Y-775842D02*
X-700204Y-775842D01*
X-700204Y-709835D01*
X-688469Y-696633D01*
X-676735Y-696633D01*
X-665000Y-709835D01*
X-665000Y-775842D01*
X-665000Y-709835D02*
X-653265Y-696633D01*
X-629796Y-696633D01*
X-688469Y-657029D02*
X-700204Y-643827D01*
X-700204Y-604223D01*
X-688469Y-591021D01*
X-676735Y-591021D01*
X-665000Y-604223D01*
X-665000Y-643827D01*
X-653265Y-657029D01*
X-629796Y-657029D01*
X-629796Y-591021D01*
D19*
X+843480Y+1155100D02*
X+1036520Y+1155100D01*
X+1036520Y+2348900D01*
X+843480Y+2348900D01*
X+843480Y+1155100D01*
D72*
X+940000Y+2260000D02*
X+940000Y+2260000D01*
D31*
X+978404Y+1574557D02*
X+901595Y+1574557D01*
X+901595Y+1632163D01*
X+927198Y+1660966D01*
X+952801Y+1660966D01*
X+978404Y+1632163D01*
X+978404Y+1574557D01*
X+914397Y+1704171D02*
X+901595Y+1718573D01*
X+901595Y+1761778D01*
X+914397Y+1776179D01*
X+927198Y+1776179D01*
X+940000Y+1761778D01*
X+940000Y+1718573D01*
X+952801Y+1704171D01*
X+978404Y+1704171D01*
X+978404Y+1776179D01*
D19*
X+1687920Y-506080D02*
X+1952080Y-506080D01*
X+1952080Y+12080D01*
X+1687920Y+12080D01*
X+1687920Y-506080D01*
D72*
X+1820000Y-120000D02*
X+1820000Y-120000D01*
D73*
X+1842691Y-356347D02*
X+1854036Y-369111D01*
X+1854036Y-407401D01*
X+1831345Y-432927D01*
X+1808655Y-432927D01*
X+1785964Y-407401D01*
X+1785964Y-369111D01*
X+1797309Y-356347D01*
X+1797309Y-318057D02*
X+1785964Y-305294D01*
X+1785964Y-267004D01*
X+1797309Y-254240D01*
X+1808655Y-254240D01*
X+1820000Y-267004D01*
X+1831345Y-254240D01*
X+1842691Y-254240D01*
X+1854036Y-267004D01*
X+1854036Y-305294D01*
X+1842691Y-318057D01*
X+1820000Y-292530D02*
X+1820000Y-267004D01*
D19*
X+2747920Y-496080D02*
X+3012080Y-496080D01*
X+3012080Y+22080D01*
X+2747920Y+22080D01*
X+2747920Y-496080D01*
D72*
X+2880000Y-110000D02*
X+2880000Y-110000D01*
D73*
X+2902691Y-346347D02*
X+2914036Y-359111D01*
X+2914036Y-397401D01*
X+2891345Y-422927D01*
X+2868655Y-422927D01*
X+2845964Y-397401D01*
X+2845964Y-359111D01*
X+2857309Y-346347D01*
X+2891345Y-244240D02*
X+2891345Y-320820D01*
X+2845964Y-269767D01*
X+2914036Y-269767D01*
D19*
X+4231100Y+1101100D02*
X+4408900Y+1101100D01*
X+4408900Y+2294900D01*
X+4231100Y+2294900D01*
X+4231100Y+1101100D01*
D72*
X+4320000Y+1190000D02*
X+4320000Y+1190000D01*
D30*
X+4355204Y+1654618D02*
X+4284796Y+1654618D01*
X+4284796Y+1720625D01*
X+4296531Y+1733827D01*
X+4308265Y+1733827D01*
X+4320000Y+1720625D01*
X+4320000Y+1654618D01*
X+4320000Y+1720625D02*
X+4331735Y+1733827D01*
X+4355204Y+1733827D01*
X+4296531Y+1773431D02*
X+4284796Y+1786633D01*
X+4284796Y+1826237D01*
X+4296531Y+1839439D01*
X+4308265Y+1839439D01*
X+4320000Y+1826237D01*
X+4331735Y+1839439D01*
X+4343469Y+1839439D01*
X+4355204Y+1826237D01*
X+4355204Y+1786633D01*
X+4343469Y+1773431D01*
X+4320000Y+1799834D02*
X+4320000Y+1826237D01*
D19*
X+4117420Y-265580D02*
X+4699080Y-265580D01*
X+4699080Y+316080D01*
X+4117420Y+316080D01*
X+4117420Y-265580D01*
D32*
X+4440000Y+184000D02*
X+4440000Y+184000D01*
D33*
X+4254174Y-112469D02*
X+4254174Y-9752D01*
X+4331212Y-9752D01*
X+4369731Y-43991D01*
X+4369731Y-78230D01*
X+4331212Y-112469D01*
X+4254174Y-112469D01*
X+4427509Y-26871D02*
X+4446769Y-9752D01*
X+4504547Y-9752D01*
X+4523807Y-26871D01*
X+4523807Y-43991D01*
X+4504547Y-61110D01*
X+4523807Y-78230D01*
X+4523807Y-95350D01*
X+4504547Y-112469D01*
X+4446769Y-112469D01*
X+4427509Y-95350D01*
X+4466028Y-61110D02*
X+4504547Y-61110D01*
D19*
X+5703920Y+572920D02*
X+6476080Y+572920D01*
X+6476080Y+1599080D01*
X+5703920Y+1599080D01*
X+5703920Y+572920D01*
D34*
X+6090000Y+1340000D02*
X+6090000Y+1340000D01*
D35*
X+5914436Y+906472D02*
X+5914436Y+886965D01*
X+5936381Y+867458D01*
X+6024163Y+867458D01*
X+6046109Y+886965D01*
X+6046109Y+984501D01*
X+6133891Y+945487D02*
X+6177782Y+984501D01*
X+6177782Y+867458D01*
D71*
X-5994600Y+1474320D02*
X-6246060Y+1474320D01*
X-6246060Y+925680D01*
X-5994600Y+925680D01*
X-5994600Y+1474320D01*
X-6246060Y+1474320D01*
X-6246060Y+925680D01*
X-5994600Y+925680D01*
X-5994600Y+1474320D01*
D36*
X-6120000Y+1300000D02*
X-6120000Y+1300000D01*
D37*
X-6154612Y+992214D02*
X-6120330Y+992214D01*
X-6086047Y+1030781D01*
X-6120330Y+1069348D01*
X-6154612Y+1069348D01*
X-6131757Y+1120771D02*
X-6154612Y+1146483D01*
X-6086047Y+1146483D01*
M02*
