G04 PROTEUS GERBER X2 FILE*
%TF.GenerationSoftware,Labcenter,Proteus,8.17-SP2-Build37159*%
%TF.CreationDate,2024-06-20T16:09:20+00:00*%
%TF.FileFunction,Legend,Top*%
%TF.FilePolarity,Positive*%
%TF.Part,Single*%
%TF.SameCoordinates,{d690fe0b-f5ba-4302-a425-257792fcdbd5}*%
%FSLAX45Y45*%
%MOMM*%
G01*
%TA.AperFunction,Profile*%
%ADD16C,0.101600*%
%TA.AperFunction,Material*%
%ADD19C,0.101600*%
%ADD70C,0.508000*%
%ADD71C,0.152400*%
%TD.AperFunction*%
D16*
X-6550000Y-1560000D02*
X+6840000Y-1560000D01*
X+6840000Y+3120000D01*
X-6550000Y+3120000D01*
X-6550000Y-1560000D01*
D19*
X-2184900Y+2056000D02*
X-2184900Y+2564000D01*
X-2350000Y+1979800D02*
X-2311702Y+1984562D01*
X-2272212Y+1998850D01*
X-2230342Y+2022662D01*
X-2184900Y+2056000D01*
X-2350000Y+1979800D02*
X-2414918Y+1982431D01*
X-2474953Y+1998912D01*
X-2528942Y+2027839D01*
X-2575722Y+2067807D01*
X-2614131Y+2117412D01*
X-2643005Y+2175249D01*
X-2661182Y+2239913D01*
X-2667500Y+2310000D01*
X-2350000Y+2640200D02*
X-2311702Y+2635438D01*
X-2272212Y+2621150D01*
X-2230342Y+2597338D01*
X-2184900Y+2564000D01*
X-2350000Y+2640200D02*
X-2414918Y+2637569D01*
X-2474953Y+2621088D01*
X-2528942Y+2592161D01*
X-2575722Y+2552193D01*
X-2614131Y+2502588D01*
X-2643005Y+2444751D01*
X-2661182Y+2380087D01*
X-2667500Y+2310000D01*
X-2774180Y+2203320D02*
X-2710680Y+2203320D01*
X-2697980Y+2216655D01*
X-2697980Y+2269995D01*
X-2710680Y+2283330D01*
X-2774180Y+2283330D01*
X-2748780Y+2336670D02*
X-2774180Y+2363340D01*
X-2697980Y+2363340D01*
X-4617080Y+2375380D02*
X-4098920Y+2375380D01*
X-4098920Y+2642080D01*
X-4617080Y+2642080D01*
X-4617080Y+2375380D01*
X-4180200Y+2377920D02*
X-4180200Y+2639540D01*
X-4027800Y+2510000D02*
X-4098920Y+2510000D01*
X-4617080Y+2510000D02*
X-4688200Y+2510000D01*
X-4464680Y+2268700D02*
X-4464680Y+2344900D01*
X-4411340Y+2344900D01*
X-4384670Y+2319500D01*
X-4384670Y+2294100D01*
X-4411340Y+2268700D01*
X-4464680Y+2268700D01*
X-4331330Y+2319500D02*
X-4304660Y+2344900D01*
X-4304660Y+2268700D01*
X-4870000Y-354000D02*
X-4844124Y-359080D01*
X-4820152Y-373685D01*
X-4798562Y-396862D01*
X-4779830Y-427660D01*
X-4764431Y-465125D01*
X-4752842Y-508305D01*
X-4745540Y-556248D01*
X-4743000Y-608000D01*
X-4870000Y-862000D02*
X-4844124Y-856920D01*
X-4820152Y-842315D01*
X-4798562Y-819138D01*
X-4779830Y-788340D01*
X-4764431Y-750875D01*
X-4752842Y-707695D01*
X-4745540Y-659752D01*
X-4743000Y-608000D01*
X-4870000Y-354000D02*
X-4895876Y-359080D01*
X-4919848Y-373685D01*
X-4941438Y-396862D01*
X-4960170Y-427660D01*
X-4975569Y-465125D01*
X-4987158Y-508305D01*
X-4994460Y-556248D01*
X-4997000Y-608000D01*
X-4870000Y-862000D02*
X-4895876Y-856920D01*
X-4919848Y-842315D01*
X-4941438Y-819138D01*
X-4960170Y-788340D01*
X-4975569Y-750875D01*
X-4987158Y-707695D01*
X-4994460Y-659752D01*
X-4997000Y-608000D01*
X-4649020Y-634670D02*
X-4636320Y-648005D01*
X-4636320Y-688010D01*
X-4661720Y-714680D01*
X-4687120Y-714680D01*
X-4712520Y-688010D01*
X-4712520Y-648005D01*
X-4699820Y-634670D01*
X-4687120Y-581330D02*
X-4712520Y-554660D01*
X-4636320Y-554660D01*
X-2187000Y-700000D02*
X-2181920Y-674124D01*
X-2167315Y-650152D01*
X-2144138Y-628562D01*
X-2113340Y-609830D01*
X-2075875Y-594431D01*
X-2032695Y-582842D01*
X-1984752Y-575540D01*
X-1933000Y-573000D01*
X-1679000Y-700000D02*
X-1684080Y-674124D01*
X-1698685Y-650152D01*
X-1721862Y-628562D01*
X-1752660Y-609830D01*
X-1790125Y-594431D01*
X-1833305Y-582842D01*
X-1881248Y-575540D01*
X-1933000Y-573000D01*
X-2187000Y-700000D02*
X-2181920Y-725876D01*
X-2167315Y-749848D01*
X-2144138Y-771438D01*
X-2113340Y-790170D01*
X-2075875Y-805569D01*
X-2032695Y-817158D01*
X-1984752Y-824460D01*
X-1933000Y-827000D01*
X-1679000Y-700000D02*
X-1684080Y-725876D01*
X-1698685Y-749848D01*
X-1721862Y-771438D01*
X-1752660Y-790170D01*
X-1790125Y-805569D01*
X-1833305Y-817158D01*
X-1881248Y-824460D01*
X-1933000Y-827000D01*
X-1959670Y-529820D02*
X-1973005Y-542520D01*
X-2013010Y-542520D01*
X-2039680Y-517120D01*
X-2039680Y-491720D01*
X-2013010Y-466320D01*
X-1973005Y-466320D01*
X-1959670Y-479020D01*
X-1919665Y-479020D02*
X-1906330Y-466320D01*
X-1866325Y-466320D01*
X-1852990Y-479020D01*
X-1852990Y-491720D01*
X-1866325Y-504420D01*
X-1906330Y-504420D01*
X-1919665Y-517120D01*
X-1919665Y-542520D01*
X-1852990Y-542520D01*
X-655000Y+2143000D02*
X-655000Y+2016000D01*
X-718500Y+1508000D02*
X-591500Y+1508000D01*
X-591500Y+2016000D01*
X-718500Y+2016000D01*
X-718500Y+1508000D01*
X-655000Y+1508000D02*
X-655000Y+1381000D01*
X-484820Y+1655320D02*
X-561020Y+1655320D01*
X-561020Y+1721995D01*
X-548320Y+1735330D01*
X-535620Y+1735330D01*
X-522920Y+1721995D01*
X-522920Y+1655320D01*
X-522920Y+1721995D02*
X-510220Y+1735330D01*
X-484820Y+1735330D01*
X-535620Y+1788670D02*
X-561020Y+1815340D01*
X-484820Y+1815340D01*
X-665000Y-227000D02*
X-665000Y-354000D01*
X-728500Y-862000D02*
X-601500Y-862000D01*
X-601500Y-354000D01*
X-728500Y-354000D01*
X-728500Y-862000D01*
X-665000Y-862000D02*
X-665000Y-989000D01*
X-494820Y-714680D02*
X-571020Y-714680D01*
X-571020Y-648005D01*
X-558320Y-634670D01*
X-545620Y-634670D01*
X-532920Y-648005D01*
X-532920Y-714680D01*
X-532920Y-648005D02*
X-520220Y-634670D01*
X-494820Y-634670D01*
X-558320Y-594665D02*
X-571020Y-581330D01*
X-571020Y-541325D01*
X-558320Y-527990D01*
X-545620Y-527990D01*
X-532920Y-541325D01*
X-532920Y-581330D01*
X-520220Y-594665D01*
X-494820Y-594665D01*
X-494820Y-527990D01*
X+848560Y+1561500D02*
X+1031440Y+1561500D01*
X+1031440Y+1942500D01*
X+848560Y+1942500D01*
X+848560Y+1561500D01*
X+1028900Y+1879000D02*
X+851100Y+1879000D01*
X+940000Y+1561500D02*
X+940000Y+1396400D01*
X+940000Y+1942500D02*
X+940000Y+2107600D01*
X+1138120Y+1645320D02*
X+1061920Y+1645320D01*
X+1061920Y+1698660D01*
X+1087320Y+1725330D01*
X+1112720Y+1725330D01*
X+1138120Y+1698660D01*
X+1138120Y+1645320D01*
X+1074620Y+1765335D02*
X+1061920Y+1778670D01*
X+1061920Y+1818675D01*
X+1074620Y+1832010D01*
X+1087320Y+1832010D01*
X+1100020Y+1818675D01*
X+1100020Y+1778670D01*
X+1112720Y+1765335D01*
X+1138120Y+1765335D01*
X+1138120Y+1832010D01*
X+1820000Y+7000D02*
X+1845876Y+1920D01*
X+1869848Y-12685D01*
X+1891438Y-35862D01*
X+1910170Y-66660D01*
X+1925569Y-104125D01*
X+1937158Y-147305D01*
X+1944460Y-195248D01*
X+1947000Y-247000D01*
X+1820000Y-501000D02*
X+1845876Y-495920D01*
X+1869848Y-481315D01*
X+1891438Y-458138D01*
X+1910170Y-427340D01*
X+1925569Y-389875D01*
X+1937158Y-346695D01*
X+1944460Y-298752D01*
X+1947000Y-247000D01*
X+1820000Y+7000D02*
X+1794124Y+1920D01*
X+1770152Y-12685D01*
X+1748562Y-35862D01*
X+1729830Y-66660D01*
X+1714431Y-104125D01*
X+1702842Y-147305D01*
X+1695540Y-195248D01*
X+1693000Y-247000D01*
X+1820000Y-501000D02*
X+1794124Y-495920D01*
X+1770152Y-481315D01*
X+1748562Y-458138D01*
X+1729830Y-427340D01*
X+1714431Y-389875D01*
X+1702842Y-346695D01*
X+1695540Y-298752D01*
X+1693000Y-247000D01*
X+2040980Y-273670D02*
X+2053680Y-287005D01*
X+2053680Y-327010D01*
X+2028280Y-353680D01*
X+2002880Y-353680D01*
X+1977480Y-327010D01*
X+1977480Y-287005D01*
X+1990180Y-273670D01*
X+1990180Y-233665D02*
X+1977480Y-220330D01*
X+1977480Y-180325D01*
X+1990180Y-166990D01*
X+2002880Y-166990D01*
X+2015580Y-180325D01*
X+2028280Y-166990D01*
X+2040980Y-166990D01*
X+2053680Y-180325D01*
X+2053680Y-220330D01*
X+2040980Y-233665D01*
X+2015580Y-206995D02*
X+2015580Y-180325D01*
X+2880000Y+17000D02*
X+2905876Y+11920D01*
X+2929848Y-2685D01*
X+2951438Y-25862D01*
X+2970170Y-56660D01*
X+2985569Y-94125D01*
X+2997158Y-137305D01*
X+3004460Y-185248D01*
X+3007000Y-237000D01*
X+2880000Y-491000D02*
X+2905876Y-485920D01*
X+2929848Y-471315D01*
X+2951438Y-448138D01*
X+2970170Y-417340D01*
X+2985569Y-379875D01*
X+2997158Y-336695D01*
X+3004460Y-288752D01*
X+3007000Y-237000D01*
X+2880000Y+17000D02*
X+2854124Y+11920D01*
X+2830152Y-2685D01*
X+2808562Y-25862D01*
X+2789830Y-56660D01*
X+2774431Y-94125D01*
X+2762842Y-137305D01*
X+2755540Y-185248D01*
X+2753000Y-237000D01*
X+2880000Y-491000D02*
X+2854124Y-485920D01*
X+2830152Y-471315D01*
X+2808562Y-448138D01*
X+2789830Y-417340D01*
X+2774431Y-379875D01*
X+2762842Y-336695D01*
X+2755540Y-288752D01*
X+2753000Y-237000D01*
X+3100980Y-263670D02*
X+3113680Y-277005D01*
X+3113680Y-317010D01*
X+3088280Y-343680D01*
X+3062880Y-343680D01*
X+3037480Y-317010D01*
X+3037480Y-277005D01*
X+3050180Y-263670D01*
X+3088280Y-156990D02*
X+3088280Y-237000D01*
X+3037480Y-183660D01*
X+3113680Y-183660D01*
X+4320000Y+1317000D02*
X+4320000Y+1444000D01*
X+4256500Y+1444000D02*
X+4383500Y+1444000D01*
X+4383500Y+1952000D01*
X+4256500Y+1952000D01*
X+4256500Y+1444000D01*
X+4320000Y+1952000D02*
X+4320000Y+2079000D01*
X+4226020Y+1591320D02*
X+4149820Y+1591320D01*
X+4149820Y+1657995D01*
X+4162520Y+1671330D01*
X+4175220Y+1671330D01*
X+4187920Y+1657995D01*
X+4187920Y+1591320D01*
X+4187920Y+1657995D02*
X+4200620Y+1671330D01*
X+4226020Y+1671330D01*
X+4162520Y+1711335D02*
X+4149820Y+1724670D01*
X+4149820Y+1764675D01*
X+4162520Y+1778010D01*
X+4175220Y+1778010D01*
X+4187920Y+1764675D01*
X+4200620Y+1778010D01*
X+4213320Y+1778010D01*
X+4226020Y+1764675D01*
X+4226020Y+1724670D01*
X+4213320Y+1711335D01*
X+4187920Y+1738005D02*
X+4187920Y+1764675D01*
X+4694000Y+57000D02*
X+4693173Y+77483D01*
X+4686455Y+118450D01*
X+4672437Y+159417D01*
X+4649659Y+200384D01*
X+4614859Y+241229D01*
X+4573892Y+272845D01*
X+4532925Y+293392D01*
X+4491958Y+305629D01*
X+4450991Y+310762D01*
X+4440000Y+311000D01*
X+4186000Y+57000D02*
X+4186827Y+77483D01*
X+4193545Y+118450D01*
X+4207563Y+159417D01*
X+4230341Y+200384D01*
X+4265141Y+241229D01*
X+4306108Y+272845D01*
X+4347075Y+293392D01*
X+4388042Y+305629D01*
X+4429009Y+310762D01*
X+4440000Y+311000D01*
X+4186000Y+57000D02*
X+4186827Y+36517D01*
X+4193545Y-4450D01*
X+4207563Y-45417D01*
X+4230341Y-86384D01*
X+4265141Y-127229D01*
X+4306108Y-158845D01*
X+4347075Y-179392D01*
X+4388042Y-191629D01*
X+4429009Y-196762D01*
X+4440000Y-197000D01*
X+4694000Y+57000D02*
X+4693173Y+36517D01*
X+4686455Y-4450D01*
X+4672437Y-45417D01*
X+4649659Y-86384D01*
X+4614859Y-127229D01*
X+4573892Y-158845D01*
X+4532925Y-179392D01*
X+4491958Y-191629D01*
X+4450991Y-196762D01*
X+4440000Y-197000D01*
X+4186000Y-260500D02*
X+4186000Y-133500D01*
X+4122500Y-197000D02*
X+4249500Y-197000D01*
X+4092020Y-81430D02*
X+4015820Y-81430D01*
X+4015820Y-28090D01*
X+4041220Y-1420D01*
X+4066620Y-1420D01*
X+4092020Y-28090D01*
X+4092020Y-81430D01*
X+4028520Y+38585D02*
X+4015820Y+51920D01*
X+4015820Y+91925D01*
X+4028520Y+105260D01*
X+4041220Y+105260D01*
X+4053920Y+91925D01*
X+4066620Y+105260D01*
X+4079320Y+105260D01*
X+4092020Y+91925D01*
X+4092020Y+51920D01*
X+4079320Y+38585D01*
X+4053920Y+65255D02*
X+4053920Y+91925D01*
X+5709000Y+1594000D02*
X+6471000Y+1594000D01*
X+6471000Y+578000D02*
X+5709000Y+578000D01*
X+5709000Y+1594000D02*
X+5709000Y+578000D01*
X+6471000Y+1594000D02*
X+6471000Y+578000D01*
X+6552280Y+979320D02*
X+6564980Y+979320D01*
X+6577680Y+992655D01*
X+6577680Y+1045995D01*
X+6564980Y+1059330D01*
X+6501480Y+1059330D01*
X+6526880Y+1112670D02*
X+6501480Y+1139340D01*
X+6577680Y+1139340D01*
D70*
X-6272400Y+1300000D02*
X-6272531Y+1303158D01*
X-6273597Y+1309476D01*
X-6275828Y+1315794D01*
X-6279473Y+1322112D01*
X-6285048Y+1328351D01*
X-6291366Y+1332947D01*
X-6297684Y+1335880D01*
X-6304002Y+1337542D01*
X-6310320Y+1338100D01*
X-6310500Y+1338100D01*
X-6348600Y+1300000D02*
X-6348469Y+1303158D01*
X-6347403Y+1309476D01*
X-6345172Y+1315794D01*
X-6341527Y+1322112D01*
X-6335952Y+1328351D01*
X-6329634Y+1332947D01*
X-6323316Y+1335880D01*
X-6316998Y+1337542D01*
X-6310680Y+1338100D01*
X-6310500Y+1338100D01*
X-6348600Y+1300000D02*
X-6348469Y+1296842D01*
X-6347403Y+1290524D01*
X-6345172Y+1284206D01*
X-6341527Y+1277888D01*
X-6335952Y+1271649D01*
X-6329634Y+1267053D01*
X-6323316Y+1264120D01*
X-6316998Y+1262458D01*
X-6310680Y+1261900D01*
X-6310500Y+1261900D01*
X-6272400Y+1300000D02*
X-6272531Y+1296842D01*
X-6273597Y+1290524D01*
X-6275828Y+1284206D01*
X-6279473Y+1277888D01*
X-6285048Y+1271649D01*
X-6291366Y+1267053D01*
X-6297684Y+1264120D01*
X-6304002Y+1262458D01*
X-6310320Y+1261900D01*
X-6310500Y+1261900D01*
D71*
X-6220660Y+1448920D02*
X-6220660Y+1322407D01*
X-6220660Y+951080D02*
X-6020000Y+951080D01*
X-6020000Y+1074809D01*
X-6020000Y+1448920D02*
X-6220660Y+1448920D01*
X-6220660Y+1077593D02*
X-6220660Y+951080D01*
X-6020000Y+1125191D02*
X-6020000Y+1274809D01*
X-6020000Y+1325191D02*
X-6020000Y+1448920D01*
X-6220660Y+1277593D02*
X-6220660Y+1122407D01*
D19*
X-5986980Y+1093320D02*
X-5948880Y+1093320D01*
X-5910780Y+1133325D01*
X-5948880Y+1173330D01*
X-5986980Y+1173330D01*
X-5961580Y+1226670D02*
X-5986980Y+1253340D01*
X-5910780Y+1253340D01*
M02*
